<?xml version="1.0" encoding="UTF-8"?>
<svg id="Layer_2" data-name="Layer 2" xmlns="http://www.w3.org/2000/svg" viewBox="0 0 387.78 125.95">
  <defs>
    <style>
      .cls-1 {
        fill: #fff;
      }

      .cls-1, .cls-2 {
        stroke-width: 0px;
      }

      .cls-2 {
        fill: #d1d3d4;
      }
    </style>
  </defs>
  <g id="layer_01" data-name="layer_01">
    <g>
      <path class="cls-1" d="M167.46,40.32h37.41v7.17h-14.27v46.44h-8.79v-46.44h-14.35v-7.17Z"/>
      <path class="cls-1" d="M237.97,40.32v46.52h18.13v7.1h-26.92v-53.61h8.79Z"/>
      <path class="cls-1" d="M311.17,82.98h-22.45l-3.86,10.95h-9.18l19.21-53.69h10.18l19.21,53.69h-9.26l-3.86-10.95ZM299.99,50.89l-8.79,24.92h17.51l-8.72-24.92Z"/>
      <path class="cls-1" d="M343.42,40.32h9.8l12.42,26.31,12.42-26.31h9.72l-17.74,34.17v19.44h-8.79v-19.44l-17.82-34.17Z"/>
    </g>
    <circle class="cls-2" cx="36.78" cy="89.17" r="10.35"/>
    <circle class="cls-2" cx="89.17" cy="36.78" r="10.35"/>
    <circle class="cls-2" cx="63.21" cy="115.6" r="10.35"/>
    <path class="cls-1" d="M89.43,99.73c-2.8,0-5.34-1.05-7.32-3.03-1.98-1.98-3.03-4.51-3.03-7.32.04-4.27-1.63-8.37-4.64-11.39-2.99-3.01-7.06-4.69-11.29-4.69-.03,0-.15,0-.15,0-2.8,0-5.34-1.05-7.32-3.03-1.98-1.98-3.03-4.51-3.03-7.32.04-4.27-1.64-8.38-4.66-11.41-2.99-3-7.05-4.67-11.28-4.67-.03,0-.06,0-.09,0-8.77.02-15.91,7.12-15.93,15.9,0,2.8-1.05,5.32-3.03,7.3-1.98,1.98-4.51,3.03-7.32,3.03s-5.34-1.05-7.32-3.03c-4.04-4.04-4.04-10.6,0-14.64,1.98-1.98,4.5-3.03,7.3-3.03,8.77-.02,15.88-7.13,15.9-15.9,0-2.8,1.05-5.32,3.03-7.3,1.97-1.97,4.49-3.02,7.28-3.03,8.75-.03,15.83-7.11,15.87-15.86.01-2.75,1.08-5.34,3.02-7.27,1.98-1.98,4.51-3.03,7.32-3.03s5.34,1.05,7.32,3.03c1.98,1.98,3.03,4.51,3.03,7.32s-1.05,5.34-3.03,7.32c-1.97,1.97-4.49,3.02-7.28,3.03-8.78.03-15.87,7.16-15.87,15.93,0,4.24,1.69,8.31,4.69,11.3,2.99,2.97,7.03,4.66,11.24,4.66.02,0,.16,0,.16,0,2.8,0,5.34,1.05,7.32,3.03,1.98,1.98,3.03,4.51,3.03,7.32-.04,4.27,1.63,8.37,4.64,11.39,2.99,3.01,7.06,4.69,11.29,4.69.03,0,.15,0,.15,0,2.8,0,5.34,1.05,7.32,3.03,1.98,1.98,3.03,4.51,3.03,7.32s-1.05,5.34-3.03,7.32c-1.98,1.98-4.51,3.03-7.32,3.03Z"/>
    <circle class="cls-2" cx="115.6" cy="63.21" r="10.35"/>
  </g>
</svg>