<svg width="99" height="20" viewBox="0 0 99 20" fill="none" xmlns="http://www.w3.org/2000/svg">
<path d="M19.7855 14.3748H19.7648C18.4635 14.3748 18.1713 13.8171 15.6777 9.05706C15.4761 8.67212 15.26 8.2597 15.0279 7.81786C11.7389 1.54466 10.7874 0 7.29157 0H5.36783V17.958H8.08796V3.65674H8.10864C9.28738 3.65674 9.48329 4.01215 11.9178 8.42874C12.1962 8.93374 12.5039 9.49184 12.8456 10.1086C16.4035 16.5394 17.3757 17.958 20.5819 17.958H22.5056V0H19.7855V14.3748Z" fill="white"/>
<path d="M50.4412 17.9475C45.7766 17.9475 44.1632 14.8792 44.1632 8.97373C44.1632 3.0683 45.7766 -1.32075e-06 50.4308 0.0105066H60.7425V3.65674H50.4412C47.9176 3.65674 47.1419 4.88617 46.9454 7.22942C46.9454 7.25044 60.7425 7.22942 60.7425 7.22942V10.8021C60.7425 10.8021 46.9454 10.7496 46.9454 10.8021C47.1522 13.0928 47.9383 14.3538 50.4308 14.3538H60.7425V17.9475H50.4412Z" fill="white"/>
<path d="M69.7199 17.9475C65.0554 17.9475 63.4419 14.8792 63.4419 8.97373C63.4419 3.0683 65.0554 -1.32075e-06 69.7302 0.0105066H80.0315V3.65674H69.7302C67.2066 3.65674 66.4309 4.88617 66.2344 7.22942C66.2344 7.25044 80.0315 7.22942 80.0315 7.22942V10.8021C80.0315 10.8021 66.2344 10.7496 66.2344 10.8021C66.4413 13.0928 67.2273 14.3538 69.7199 14.3538H80.0212V17.9475H69.7199Z" fill="white"/>
<path d="M0 0.0420341H2.67875V17.958H0V0.0420341Z" fill="white"/>
<path d="M99 0.0210138L95.4525 0.0105053L89.5365 7.21891H85.4408V0H82.731V17.958H85.4408V10.8021H89.6399L95.4214 17.958H98.9586L91.6567 8.97373L93.3839 6.87215L99 0.0210138Z" fill="white"/>
<path d="M38.7643 10.8021H36.0545V7.22942H41.4844V17.958H31.1728C26.5082 17.958 24.9155 14.8581 24.9155 8.95271C24.9155 3.0683 26.5186 0 31.1728 0H41.4327V3.64623H31.1728C28.0803 3.64623 27.6977 5.51664 27.6977 8.95271C27.6977 12.4203 28.07 14.2802 31.1728 14.2802H38.7643V10.8021Z" fill="white"/>
</svg>