<?xml version="1.0" encoding="UTF-8"?>
<svg viewBox="0 0 350 128.36" xmlns="http://www.w3.org/2000/svg">
<g data-name="Capa 2">
<g data-name="Capa 1">
<circle fill="#ffffff" cx="12.36" cy="30.63" r="12.36"/>
<circle fill="#ffffff" cx="41.4" cy="30.63" r="12.36"/>
<circle fill="#ffffff" cx="70.44" cy="30.63" r="12.36"/>
<circle fill="#ffffff" cx="41.4" cy="59.67" r="12.36"/>
<circle fill="#ffffff" cx="41.4" cy="88.71" r="12.36"/>
<path fill="#ffffff" transform="translate(0 .01)" d="M109.14,50H97.63V43.17H127.8V50H116.27V81.56h-7.13Z"/>
<path fill="#ffffff" transform="translate(0 .01)" d="M151.85,73.33c-.6,2.2-4,8.78-12.88,8.78-8.23,0-14.26-6-14.26-14.53s6-14.53,14.26-14.53a13.64,13.64,0,0,1,13.71,14,14.41,14.41,0,0,1-.17,2l-.11.77H131.57a7.36,7.36,0,0,0,7.4,6.58,6.39,6.39,0,0,0,5.76-3Zm-6-8.22c-.6-3.57-3-6.31-6.85-6.31-4.17,0-6.58,2.74-7.41,6.31Z"/>
<path fill="#ffffff" transform="translate(0 .01)" d="m156.78 43.18h6.86v38.38h-6.86z"/>
<path fill="#ffffff" transform="translate(0 .01)" d="M194.9,73.33c-.61,2.2-4.06,8.78-12.89,8.78-8.23,0-14.26-6-14.26-14.53s6-14.53,14.26-14.53a13.64,13.64,0,0,1,13.71,14,14.41,14.41,0,0,1-.17,2l-.1.77H174.61a7.37,7.37,0,0,0,7.4,6.58,6.39,6.39,0,0,0,5.76-3Zm-6-8.22c-.6-3.57-3-6.31-6.85-6.31-4.17,0-6.58,2.74-7.41,6.31Z"/>
<path fill="#ffffff" transform="translate(0 .01)" d="M202,60.17h-4.66V53.59H202V49.48c0-4.17,2.68-6.86,6.85-6.86h6v6h-4.12a1.87,1.87,0,0,0-1.92,1.82v3.11h6v6.58h-6V81.56H202Z"/>
<path fill="#ffffff" transform="translate(0 .01)" d="m244.45 67.59c0 8.51-6 14.54-14.26 14.54s-14.26-6-14.26-14.54 6-14.53 14.26-14.53 14.26 6.02 14.26 14.53zm-6.86 0c0-4.93-3.29-8.22-7.4-8.22s-7.41 3.29-7.41 8.22 3.3 8.23 7.41 8.23 7.4-3.31 7.4-8.23z"/>
<path fill="#ffffff" transform="translate(0 .01)" d="M248.56,53.59h6.3l.55,2.76h.27a9.14,9.14,0,0,1,1.87-1.64,10.49,10.49,0,0,1,5.81-1.65c6.31,0,11,4.66,11,11.79V81.58h-6.85V65.38a6,6,0,0,0-12.07,0V81.56h-6.86Z"/>
<path fill="#ffffff" transform="translate(0 .01)" d="M318,71.14c-.87,4.39-4.33,11-13.16,11-8.22,0-14.25-6-14.25-14.53s6-14.53,14.25-14.53c8.83,0,12.29,6.58,13.16,10.69h-6.85a6.38,6.38,0,0,0-6.31-4.38c-4.11,0-7.41,3.28-7.41,8.23s3.29,8.23,7.4,8.23a6.22,6.22,0,0,0,6.31-4.66Z"/>
<path fill="#ffffff" transform="translate(0 .01)" d="M338.7,78.82h-.28a8.15,8.15,0,0,1-1.92,1.64,11.05,11.05,0,0,1-6,1.65c-6.36,0-10.14-3.89-10.14-8.5,0-5.49,3.84-9.31,11.51-9.31h6.31v-.55c0-3.07-1.86-5.21-4.94-5.21s-4.66,2-4.93,3.56h-6.86c.61-4.6,4.34-9,11.79-9,7.13,0,11.79,4.71,11.79,10.69V81.57h-5.75Zm-.55-9.32h-5.76c-3.56,0-5.21,1.38-5.21,3.57s1.59,3.57,4.39,3.57c4.17,0,6.58-2.42,6.58-6.31Z"/>
<path fill="#ffffff" transform="translate(0 .01)" d="m279.59 53.59h6.85v28h-6.85z"/>
<circle fill="#ffffff" cx="283.01" cy="45.53" r="4.06"/>
<polygon fill="#ffffff" points="239.77 41.81 233.21 49.76 227.45 49.76 232.66 41.81"/>
</g>
</g>
</svg>
