<svg width="80" height="58" viewBox="0 0 80 58" fill="none" xmlns="http://www.w3.org/2000/svg">
<path d="M1.99061 57.4818C1.50474 57.4818 1.01888 57.1174 1.01888 56.6316C0.897412 56.0242 1.38328 55.5384 1.86914 55.5384C1.99061 55.5384 13.4084 53.8379 22.6398 34.2819C28.8346 21.285 37.3372 11.4463 47.4189 5.85883C55.3142 1.48606 62.7236 0.635783 66.6105 1.12165C66.9749 1.12165 67.9466 1.36459 67.9466 2.21485C68.0681 3.18658 67.3393 3.42951 65.3958 4.27977C59.9299 6.46615 44.6251 12.6609 37.0943 31.6096C41.1026 25.1719 47.6618 16.6693 55.9215 14.6044C58.8367 13.8756 60.0513 13.6326 60.6587 14.6044C61.1445 15.5761 60.4157 16.1834 58.5937 17.7625C55.5571 20.3133 49.6053 25.4148 45.7183 33.4316C49.6053 30.0305 57.1361 23.9572 63.6953 26.8724C64.1812 27.1154 64.4241 27.7227 64.1812 28.2086C63.9382 28.6944 63.3309 28.9373 62.845 28.6944C57.1361 26.1436 49.9697 32.4599 46.5686 35.4965C44.6252 37.197 43.8964 37.8044 43.0461 37.197C42.1958 36.5897 42.6817 35.618 42.9246 35.0107C46.8115 25.4148 53.6136 19.463 57.1361 16.4264C57.0147 16.4264 56.7717 16.5478 56.6503 16.5478C46.4471 19.0986 38.7948 32.7028 35.8796 37.9258C35.5152 38.5332 35.2723 39.019 35.0293 39.3834C34.7864 39.7478 34.3005 40.5981 33.4503 40.2337C32.6 39.8693 32.843 38.8975 32.9644 38.4117C38.7948 14.6044 55.6785 6.10175 63.2094 2.94364C59.6869 3.18657 54.4639 4.27976 48.755 7.55934C39.0377 12.9038 30.778 22.3782 24.8262 35.0107C14.7445 55.7813 2.59794 57.3604 1.99061 57.4818Z" fill="#2EA4D5"/>
<path d="M32.6001 47.6427L33.8148 45.6992H34.665L32.9645 48.25L34.908 51.0437H33.9362L32.4786 48.7359L31.021 51.0437H30.0493L31.9928 48.25L30.2922 45.6992H31.264L32.6001 47.6427Z" fill="#ffffff"/>
<path d="M38.0662 51.0437H37.3374V45.6992H38.0662V51.0437Z" fill="#ffffff"/>
<path d="M44.6253 49.9505V45.6992H45.3541V51.0437H44.3824L41.5887 46.6709V51.0437H40.8599V45.6992H41.8316L44.6253 49.9505Z" fill="#ffffff"/>
<path d="M50.3342 51.0437H49.6054V48.7359L47.5405 45.6992H48.5123L49.9698 48.1285L51.4274 45.6992H52.2777L50.2128 48.7359V51.0437H50.3342Z" fill="#ffffff"/>
<path d="M55.0711 51.0437H54.3423V45.6992H55.0711V51.0437Z" fill="#ffffff"/>
<path d="M60.6588 46.6717C60.5374 46.5502 60.4159 46.4288 60.173 46.3073C60.0515 46.1858 59.8086 46.1858 59.5656 46.1858C59.4442 46.1858 59.3227 46.1858 59.2012 46.1858C59.0798 46.1858 58.9583 46.3073 58.8368 46.3073C58.7154 46.4288 58.5939 46.4288 58.5939 46.5502C58.4724 46.6717 58.4725 46.7932 58.4725 46.9146C58.4725 47.0361 58.4724 47.1576 58.5939 47.279C58.5939 47.4005 58.7154 47.4005 58.8368 47.5219C58.9583 47.6434 59.0798 47.6434 59.2012 47.6434C59.3227 47.6434 59.4442 47.7649 59.6871 47.7649C59.8086 47.7649 60.0515 47.8864 60.2944 48.0078C60.5374 48.1293 60.6588 48.1293 60.7803 48.2508C60.9018 48.3722 61.0232 48.4937 61.1447 48.7366C61.2662 48.8581 61.2662 49.101 61.2662 49.3439C61.2662 49.5869 61.2662 49.8298 61.1447 50.0727C61.0232 50.3157 60.9018 50.4371 60.7803 50.5586C60.6588 50.6801 60.4159 50.8015 60.173 50.8015C59.93 50.923 59.6871 50.923 59.4442 50.923C59.0798 50.923 58.8368 50.8015 58.4725 50.6801C58.1081 50.5586 57.8651 50.3157 57.7437 50.0727L58.351 49.5869C58.4724 49.8298 58.5939 49.9513 58.8368 50.0727C59.0798 50.1942 59.3227 50.1942 59.5656 50.1942C59.6871 50.1942 59.8086 50.1942 59.93 50.1942C60.0515 50.1942 60.173 50.0727 60.2944 50.0727C60.4159 49.9513 60.5374 49.9513 60.5374 49.8298C60.6588 49.7083 60.6588 49.5869 60.6588 49.4654C60.6588 49.3439 60.6588 49.2225 60.5374 49.101C60.4159 48.9796 60.4159 48.8581 60.2944 48.8581C60.173 48.7366 60.0515 48.7366 59.93 48.6152C59.8086 48.6152 59.5656 48.4937 59.4442 48.4937C59.3227 48.4937 59.0798 48.3722 58.9583 48.2508C58.8368 48.1293 58.5939 48.1293 58.4725 48.0078C58.351 47.8864 58.2295 47.7649 58.1081 47.6434C57.9866 47.522 57.9866 47.279 57.9866 47.0361C57.9866 46.7932 57.9866 46.5502 58.1081 46.3073C58.2295 46.0644 58.351 45.9429 58.4725 45.8214C58.5939 45.7 58.8368 45.5785 59.0798 45.5785C59.3227 45.5785 59.5656 45.457 59.6871 45.457C60.0515 45.457 60.2944 45.457 60.5374 45.5785C60.7803 45.7 61.0232 45.8214 61.1447 46.0644L60.6588 46.6717Z" fill="#ffffff"/>
<path d="M64.5457 50.3153H67.3394V50.9226H63.8169V45.5781H67.2179V46.1855H64.5457V47.7645H67.0965V48.3718H64.5457V50.3153Z" fill="#ffffff"/>
<path d="M72.5623 49.708L74.1413 45.5781H75.356V50.9226H74.6272V46.4284L72.8052 50.9226H72.3193L70.4973 46.4284V50.9226H69.7686V45.5781H70.9832L72.5623 49.708Z" fill="#ffffff"/>
<path d="M79.0003 51.0437H78.2715V45.6992H79.0003V51.0437Z" fill="#ffffff"/>
</svg>
